<svg xmlns="http://www.w3.org/2000/svg" xmlns:xlink="http://www.w3.org/1999/xlink" width="216" zoomAndPan="magnify" viewBox="0 0 162 161.999997" height="216" preserveAspectRatio="xMidYMid meet" version="1.0"><path fill="#163f2b" d="M 66.222656 4.621094 L 70.332031 2.917969 L 70.476562 3.265625 L 72.53125 2.414062 C 73.207031 2.132812 73.886719 1.890625 74.578125 1.679688 L 74.46875 1.324219 C 75.886719 0.894531 77.335938 0.605469 78.792969 0.460938 L 78.832031 0.835938 C 80.273438 0.691406 81.726562 0.691406 83.167969 0.835938 L 83.207031 0.460938 C 84.664062 0.605469 86.113281 0.894531 87.53125 1.324219 L 87.421875 1.679688 C 88.113281 1.890625 88.792969 2.132812 89.464844 2.414062 L 91.523438 3.265625 L 91.667969 2.917969 L 95.777344 4.621094 L 95.632812 4.96875 L 99.746094 6.671875 L 99.890625 6.324219 L 104 8.027344 L 103.855469 8.375 L 107.96875 10.078125 L 108.113281 9.730469 L 112.222656 11.433594 L 112.082031 11.78125 L 116.191406 13.484375 L 116.335938 13.136719 L 120.445312 14.839844 L 120.304688 15.1875 L 124.414062 16.890625 L 124.558594 16.542969 L 128.671875 18.246094 L 128.527344 18.59375 L 130.582031 19.445312 C 131.253906 19.722656 131.910156 20.03125 132.546875 20.371094 L 132.722656 20.042969 C 134.027344 20.738281 135.253906 21.5625 136.390625 22.492188 L 136.152344 22.78125 C 137.273438 23.699219 138.300781 24.726562 139.21875 25.847656 L 139.507812 25.609375 C 140.4375 26.746094 141.261719 27.972656 141.957031 29.277344 L 141.628906 29.453125 C 141.96875 30.089844 142.277344 30.746094 142.554688 31.417969 L 143.410156 33.472656 L 143.753906 33.328125 L 145.457031 37.441406 L 145.109375 37.585938 L 146.8125 41.695312 L 147.160156 41.554688 L 148.863281 45.664062 L 148.515625 45.808594 L 150.21875 49.917969 L 150.566406 49.777344 L 152.269531 53.886719 L 151.921875 54.03125 L 153.625 58.144531 L 153.972656 58 L 155.675781 62.109375 L 155.328125 62.253906 L 157.03125 66.367188 L 157.378906 66.222656 L 159.082031 70.332031 L 158.734375 70.476562 L 159.585938 72.53125 C 159.867188 73.207031 160.109375 73.886719 160.320312 74.578125 L 160.679688 74.46875 C 161.109375 75.886719 161.394531 77.335938 161.539062 78.792969 L 161.164062 78.832031 C 161.308594 80.273438 161.308594 81.726562 161.164062 83.167969 L 161.539062 83.207031 C 161.394531 84.664062 161.109375 86.113281 160.679688 87.53125 L 160.320312 87.421875 C 160.109375 88.113281 159.867188 88.792969 159.585938 89.464844 L 158.734375 91.523438 L 159.082031 91.667969 L 157.378906 95.777344 L 157.03125 95.632812 L 155.328125 99.746094 L 155.675781 99.890625 L 153.972656 104 L 153.625 103.855469 L 151.921875 107.96875 L 152.269531 108.113281 L 150.566406 112.222656 L 150.21875 112.082031 L 148.515625 116.191406 L 148.863281 116.335938 L 147.160156 120.445312 L 146.8125 120.304688 L 145.109375 124.414062 L 145.457031 124.558594 L 143.753906 128.671875 L 143.410156 128.527344 L 142.554688 130.582031 C 142.277344 131.253906 141.96875 131.910156 141.628906 132.546875 L 141.957031 132.722656 C 141.261719 134.027344 140.4375 135.253906 139.507812 136.390625 L 139.21875 136.152344 C 138.300781 137.273438 137.273438 138.300781 136.152344 139.21875 L 136.390625 139.507812 C 135.253906 140.4375 134.027344 141.261719 132.722656 141.957031 L 132.546875 141.628906 C 131.910156 141.96875 131.253906 142.277344 130.582031 142.554688 L 128.527344 143.410156 L 128.671875 143.753906 L 124.558594 145.457031 L 124.414062 145.109375 L 120.304688 146.8125 L 120.445312 147.160156 L 116.335938 148.863281 L 116.191406 148.515625 L 112.082031 150.21875 L 112.222656 150.566406 L 108.113281 152.269531 L 107.96875 151.921875 L 103.855469 153.625 L 104 153.972656 L 99.890625 155.675781 L 99.746094 155.328125 L 95.632812 157.03125 L 95.777344 157.378906 L 91.667969 159.082031 L 91.523438 158.734375 L 89.464844 159.585938 C 88.792969 159.867188 88.113281 160.109375 87.421875 160.320312 L 87.53125 160.679688 C 86.113281 161.109375 84.664062 161.394531 83.207031 161.539062 L 83.167969 161.164062 C 81.726562 161.308594 80.273438 161.308594 78.832031 161.164062 L 78.792969 161.539062 C 77.335938 161.394531 75.886719 161.109375 74.46875 160.679688 L 74.578125 160.320312 C 73.886719 160.109375 73.207031 159.867188 72.53125 159.585938 L 70.476562 158.734375 L 70.332031 159.082031 L 66.222656 157.378906 L 66.367188 157.03125 L 62.253906 155.328125 L 62.109375 155.675781 L 58 153.972656 L 58.144531 153.625 L 54.03125 151.921875 L 53.886719 152.269531 L 49.777344 150.566406 L 49.917969 150.21875 L 45.808594 148.515625 L 45.664062 148.863281 L 41.554688 147.160156 L 41.695312 146.8125 L 37.585938 145.109375 L 37.441406 145.457031 L 33.328125 143.753906 L 33.472656 143.410156 L 31.417969 142.554688 C 30.746094 142.277344 30.089844 141.96875 29.453125 141.628906 L 29.277344 141.957031 C 27.972656 141.261719 26.746094 140.4375 25.609375 139.507812 L 25.847656 139.21875 C 24.726562 138.300781 23.699219 137.273438 22.78125 136.152344 L 22.492188 136.390625 C 21.5625 135.253906 20.738281 134.027344 20.042969 132.722656 L 20.371094 132.546875 C 20.03125 131.910156 19.722656 131.253906 19.445312 130.582031 L 18.59375 128.527344 L 18.246094 128.671875 L 16.542969 124.558594 L 16.890625 124.414062 L 15.1875 120.304688 L 14.839844 120.445312 L 13.136719 116.335938 L 13.484375 116.191406 L 11.78125 112.082031 L 11.433594 112.222656 L 9.730469 108.113281 L 10.078125 107.96875 L 8.375 103.855469 L 8.027344 104 L 6.324219 99.890625 L 6.671875 99.746094 L 4.96875 95.632812 L 4.621094 95.777344 L 2.917969 91.667969 L 3.265625 91.523438 L 2.414062 89.464844 C 2.132812 88.792969 1.890625 88.113281 1.679688 87.421875 L 1.324219 87.53125 C 0.894531 86.113281 0.605469 84.664062 0.460938 83.207031 L 0.835938 83.167969 C 0.691406 81.726562 0.691406 80.273438 0.835938 78.832031 L 0.460938 78.792969 C 0.605469 77.335938 0.894531 75.886719 1.324219 74.46875 L 1.679688 74.578125 C 1.890625 73.886719 2.132812 73.207031 2.414062 72.53125 L 3.265625 70.476562 L 2.917969 70.332031 L 4.621094 66.222656 L 4.96875 66.367188 L 6.671875 62.253906 L 6.324219 62.109375 L 8.027344 58 L 8.375 58.144531 L 10.078125 54.03125 L 9.730469 53.886719 L 11.433594 49.777344 L 11.78125 49.917969 L 13.484375 45.808594 L 13.136719 45.664062 L 14.839844 41.554688 L 15.1875 41.695312 L 16.890625 37.585938 L 16.542969 37.441406 L 18.246094 33.328125 L 18.59375 33.472656 L 19.445312 31.417969 C 19.722656 30.746094 20.03125 30.089844 20.371094 29.453125 L 20.042969 29.277344 C 20.738281 27.972656 21.5625 26.746094 22.492188 25.609375 L 22.78125 25.847656 C 23.699219 24.726562 24.726562 23.699219 25.847656 22.78125 L 25.609375 22.492188 C 26.746094 21.5625 27.972656 20.738281 29.277344 20.042969 L 29.453125 20.371094 C 30.089844 20.03125 30.746094 19.722656 31.417969 19.445312 L 33.472656 18.59375 L 33.328125 18.246094 L 37.441406 16.542969 L 37.585938 16.890625 L 41.695312 15.1875 L 41.554688 14.839844 L 45.664062 13.136719 L 45.808594 13.484375 L 49.917969 11.78125 L 49.777344 11.433594 L 53.886719 9.730469 L 54.03125 10.078125 L 58.144531 8.375 L 58 8.027344 L 62.109375 6.324219 L 62.253906 6.671875 L 66.367188 4.96875 Z M 66.222656 4.621094 " fill-opacity="1" fill-rule="nonzero"/><path fill="#2b4666" d="M 74.253906 1.386719 L 74.464844 1.324219 L 74.578125 1.679688 L 74.21875 1.789062 L 74 1.074219 L 74.359375 0.964844 C 75.632812 0.578125 76.925781 0.304688 78.246094 0.144531 L 78.335938 0.890625 C 77.058594 1.042969 75.808594 1.308594 74.578125 1.679688 L 74.46875 1.324219 L 74.828125 1.214844 L 75.042969 1.929688 L 74.476562 2.105469 Z M 82.472656 0.402344 C 82.71875 0.417969 82.960938 0.4375 83.207031 0.460938 L 83.167969 0.835938 L 82.796875 0.796875 L 82.871094 0.0507812 L 83.242188 0.0898438 C 84.394531 0.203125 85.527344 0.402344 86.648438 0.6875 L 86.464844 1.414062 C 85.378906 1.136719 84.28125 0.945312 83.167969 0.835938 L 83.207031 0.460938 L 83.578125 0.5 L 83.503906 1.246094 L 83.132812 1.207031 C 82.898438 1.183594 82.660156 1.167969 82.425781 1.152344 Z M 90.484375 2.429688 L 91.664062 2.917969 L 91.523438 3.265625 L 91.175781 3.121094 L 91.464844 2.429688 L 94.441406 3.660156 L 94.152344 4.355469 L 91.523438 3.265625 L 91.667969 2.917969 L 92.011719 3.0625 L 91.726562 3.753906 L 90.199219 3.121094 Z M 98.105469 5.585938 L 99.890625 6.324219 L 99.746094 6.671875 L 99.398438 6.527344 L 99.6875 5.835938 L 102.0625 6.816406 L 101.773438 7.511719 L 99.746094 6.671875 L 99.890625 6.324219 L 100.234375 6.46875 L 99.949219 7.160156 L 97.820312 6.277344 Z M 105.730469 8.742188 L 108.113281 9.730469 L 107.96875 10.078125 L 107.621094 9.933594 L 107.910156 9.242188 L 109.683594 9.976562 L 109.394531 10.667969 L 107.96875 10.078125 L 108.113281 9.730469 L 108.460938 9.875 L 108.171875 10.566406 L 105.441406 9.4375 Z M 113.351562 11.898438 L 116.335938 13.136719 L 116.191406 13.484375 L 115.847656 13.339844 L 116.132812 12.644531 L 117.304688 13.132812 L 117.019531 13.824219 L 116.191406 13.484375 L 116.335938 13.136719 L 116.683594 13.28125 L 116.394531 13.972656 L 113.0625 12.59375 Z M 120.972656 15.058594 L 124.558594 16.542969 L 124.414062 16.890625 L 124.070312 16.746094 L 124.355469 16.050781 L 124.929688 16.289062 L 124.640625 16.984375 L 124.414062 16.890625 L 124.558594 16.542969 L 124.90625 16.6875 L 124.617188 17.378906 L 120.6875 15.75 Z M 128.902344 18.660156 L 128.875 18.734375 L 128.527344 18.59375 L 128.671875 18.246094 L 130.726562 19.097656 C 131.40625 19.378906 132.074219 19.695312 132.722656 20.042969 L 132.546875 20.371094 L 132.214844 20.195312 L 132.226562 20.175781 L 132.886719 20.527344 L 132.699219 20.878906 L 132.367188 20.703125 C 131.742188 20.367188 131.097656 20.0625 130.4375 19.789062 L 128.035156 18.796875 L 128.210938 18.375 Z M 136.421875 22.035156 L 136.917969 22.4375 L 136.441406 23.019531 L 136.152344 22.78125 L 136.390625 22.492188 C 137.40625 23.324219 138.339844 24.242188 139.195312 25.238281 L 138.628906 25.726562 C 137.800781 24.761719 136.894531 23.878906 135.914062 23.070312 L 135.625 22.832031 L 136.101562 22.253906 L 136.390625 22.492188 L 136.152344 22.78125 L 135.949219 22.617188 Z M 141.910156 28.421875 C 142.039062 28.644531 142.167969 28.871094 142.289062 29.101562 L 142.464844 29.433594 L 141.804688 29.785156 L 141.628906 29.453125 L 141.957031 29.277344 C 142.304688 29.925781 142.621094 30.589844 142.902344 31.273438 L 143.359375 32.375 L 142.667969 32.664062 L 142.210938 31.5625 C 141.9375 30.898438 141.632812 30.257812 141.296875 29.632812 L 141.121094 29.300781 L 141.78125 28.945312 L 141.957031 29.277344 L 141.628906 29.453125 C 141.507812 29.234375 141.386719 29.015625 141.261719 28.796875 Z M 145.285156 36.042969 L 145.945312 37.644531 L 145.253906 37.929688 L 145.109375 37.585938 L 145.457031 37.441406 L 146.515625 39.996094 L 145.824219 40.285156 L 144.621094 37.382812 L 145.3125 37.09375 L 145.457031 37.441406 L 145.109375 37.585938 L 144.589844 36.328125 Z M 148.441406 43.664062 L 149.355469 45.867188 L 148.660156 46.15625 L 148.515625 45.808594 L 148.863281 45.664062 L 149.671875 47.621094 L 148.980469 47.90625 L 148.027344 45.605469 L 148.71875 45.316406 L 148.863281 45.664062 L 148.515625 45.808594 L 147.75 43.953125 Z M 151.597656 51.289062 L 152.757812 54.089844 L 152.066406 54.378906 L 151.921875 54.03125 L 152.269531 53.886719 L 152.832031 55.242188 L 152.136719 55.527344 L 151.433594 53.828125 L 152.125 53.542969 L 152.269531 53.886719 L 151.921875 54.03125 L 150.90625 51.574219 Z M 154.753906 58.910156 L 156.164062 62.3125 L 155.472656 62.601562 L 155.328125 62.253906 L 155.675781 62.109375 L 155.988281 62.863281 L 155.296875 63.152344 L 154.839844 62.050781 L 155.53125 61.765625 L 155.675781 62.109375 L 155.328125 62.253906 L 154.0625 59.195312 Z M 157.914062 66.53125 L 159.570312 70.535156 L 158.878906 70.824219 L 158.734375 70.476562 L 159.082031 70.332031 L 159.144531 70.484375 L 158.453125 70.773438 L 158.246094 70.273438 L 158.9375 69.988281 L 159.082031 70.332031 L 158.734375 70.476562 L 157.21875 66.820312 Z M 160.464844 74.140625 L 160.929688 74 L 161.035156 74.359375 C 161.46875 75.789062 161.761719 77.25 161.910156 78.738281 L 161.164062 78.8125 C 161.019531 77.375 160.738281 75.960938 160.320312 74.578125 L 160.679688 74.46875 L 160.785156 74.828125 L 160.683594 74.859375 Z M 161.558594 82.972656 L 161.539062 83.203125 L 161.164062 83.167969 L 161.203125 82.796875 L 161.949219 82.871094 L 161.910156 83.242188 C 161.78125 84.5625 161.539062 85.859375 161.183594 87.132812 L 160.460938 86.933594 C 160.804688 85.699219 161.039062 84.445312 161.164062 83.167969 L 161.539062 83.207031 L 161.5 83.578125 L 160.757812 83.503906 L 160.8125 82.902344 Z M 159.382812 90.9375 L 159.082031 91.667969 L 158.734375 91.523438 L 158.878906 91.175781 L 159.570312 91.464844 L 158.152344 94.890625 L 157.457031 94.605469 L 158.734375 91.523438 L 159.082031 91.667969 L 158.9375 92.011719 L 158.246094 91.726562 L 158.691406 90.648438 Z M 156.226562 98.558594 L 155.675781 99.890625 L 155.328125 99.746094 L 155.472656 99.398438 L 156.164062 99.6875 L 154.996094 102.515625 L 154.300781 102.226562 L 155.328125 99.746094 L 155.675781 99.890625 L 155.53125 100.234375 L 154.839844 99.949219 L 155.535156 98.273438 Z M 153.070312 106.179688 L 152.269531 108.113281 L 151.921875 107.96875 L 152.066406 107.621094 L 152.757812 107.910156 L 151.835938 110.136719 L 151.144531 109.847656 L 151.921875 107.96875 L 152.269531 108.113281 L 152.125 108.460938 L 151.433594 108.171875 L 152.375 105.894531 Z M 149.914062 113.804688 L 148.863281 116.335938 L 148.515625 116.191406 L 148.660156 115.84375 L 149.355469 116.132812 L 148.679688 117.757812 L 147.988281 117.46875 L 148.515625 116.191406 L 148.863281 116.335938 L 148.71875 116.683594 L 148.027344 116.394531 L 149.21875 113.515625 Z M 146.753906 121.425781 L 145.457031 124.558594 L 145.109375 124.414062 L 145.253906 124.070312 L 145.949219 124.355469 L 145.523438 125.378906 L 144.832031 125.09375 L 145.109375 124.414062 L 145.457031 124.558594 L 145.3125 124.90625 L 144.621094 124.617188 L 146.0625 121.136719 Z M 143.597656 129.046875 L 142.902344 130.726562 C 142.621094 131.410156 142.304688 132.074219 141.957031 132.722656 L 141.628906 132.546875 L 141.804688 132.214844 L 142.46875 132.570312 L 142.222656 133.019531 L 141.5625 132.667969 L 141.628906 132.542969 L 141.957031 132.722656 L 141.78125 133.054688 L 141.121094 132.699219 L 141.296875 132.367188 C 141.632812 131.742188 141.9375 131.101562 142.210938 130.4375 L 142.90625 128.761719 Z M 139.09375 136.535156 L 138.980469 136.441406 L 139.21875 136.152344 L 139.507812 136.390625 C 138.570312 137.53125 137.53125 138.570312 136.390625 139.507812 L 136.152344 139.21875 L 136.441406 138.980469 L 136.449219 138.992188 L 135.871094 139.46875 L 135.621094 139.167969 L 135.914062 138.929688 C 137.015625 138.023438 138.023438 137.015625 138.929688 135.914062 L 139.167969 135.621094 L 139.570312 135.957031 Z M 133.140625 142.15625 L 132.570312 142.46875 L 132.214844 141.804688 L 132.546875 141.628906 L 132.722656 141.957031 C 132.074219 142.304688 131.410156 142.621094 130.726562 142.902344 L 129.171875 143.546875 L 128.886719 142.851562 L 130.4375 142.210938 C 131.101562 141.9375 131.742188 141.632812 132.367188 141.296875 L 132.699219 141.121094 L 133.054688 141.78125 L 132.722656 141.957031 L 132.542969 141.628906 L 132.785156 141.5 Z M 125.503906 145.472656 L 124.355469 145.945312 L 124.070312 145.253906 L 124.414062 145.109375 L 124.558594 145.457031 L 121.550781 146.703125 L 121.265625 146.011719 L 124.617188 144.621094 L 124.90625 145.3125 L 124.558594 145.457031 L 124.414062 145.109375 L 125.21875 144.777344 Z M 117.882812 148.628906 L 116.132812 149.355469 L 115.84375 148.660156 L 116.191406 148.515625 L 116.335938 148.863281 L 113.929688 149.859375 L 113.640625 149.167969 L 116.394531 148.027344 L 116.683594 148.71875 L 116.335938 148.863281 L 116.191406 148.515625 L 117.597656 147.9375 Z M 110.261719 151.785156 L 107.910156 152.757812 L 107.621094 152.066406 L 107.96875 151.921875 L 108.113281 152.269531 L 106.304688 153.015625 L 106.019531 152.324219 L 108.171875 151.433594 L 108.457031 152.125 L 108.113281 152.269531 L 107.96875 151.921875 L 109.972656 151.09375 Z M 102.640625 154.941406 L 99.6875 156.164062 L 99.398438 155.472656 L 99.746094 155.328125 L 99.890625 155.675781 L 98.683594 156.175781 L 98.398438 155.480469 L 99.949219 154.839844 L 100.234375 155.53125 L 99.890625 155.675781 L 99.746094 155.328125 L 102.351562 154.25 Z M 95.019531 158.101562 L 91.464844 159.570312 L 91.175781 158.878906 L 91.523438 158.734375 L 91.667969 159.082031 L 91.0625 159.332031 L 90.777344 158.640625 L 91.726562 158.246094 L 92.011719 158.9375 L 91.667969 159.082031 L 91.523438 158.734375 L 94.730469 157.40625 Z M 87.265625 161.144531 C 85.949219 161.523438 84.609375 161.777344 83.242188 161.910156 L 82.871094 161.949219 L 82.796875 161.203125 L 83.167969 161.164062 L 83.203125 161.539062 L 83.109375 161.546875 L 83.039062 160.800781 L 83.503906 160.753906 L 83.578125 161.5 L 83.207031 161.539062 L 83.167969 161.164062 C 84.488281 161.035156 85.785156 160.789062 87.0625 160.425781 Z M 79.179688 161.457031 L 79.128906 161.949219 L 78.757812 161.910156 C 77.273438 161.765625 75.816406 161.476562 74.386719 161.046875 L 74.605469 160.328125 C 75.984375 160.742188 77.394531 161.023438 78.832031 161.164062 L 78.792969 161.539062 L 78.421875 161.5 L 78.433594 161.382812 Z M 70.613281 159.195312 L 70.332031 159.082031 L 70.476562 158.734375 L 70.824219 158.878906 L 70.535156 159.570312 L 66.65625 157.964844 L 66.945312 157.273438 L 70.476562 158.734375 L 70.332031 159.082031 L 69.988281 158.9375 L 70.273438 158.246094 L 70.898438 158.503906 Z M 62.988281 156.039062 L 62.109375 155.675781 L 62.253906 155.328125 L 62.601562 155.472656 L 62.3125 156.164062 L 59.035156 154.808594 L 59.320312 154.113281 L 62.253906 155.328125 L 62.109375 155.675781 L 61.765625 155.53125 L 62.050781 154.839844 L 63.277344 155.347656 Z M 55.367188 152.882812 L 53.886719 152.269531 L 54.03125 151.921875 L 54.378906 152.066406 L 54.089844 152.757812 L 51.414062 151.648438 L 51.699219 150.957031 L 54.03125 151.921875 L 53.886719 152.269531 L 53.542969 152.125 L 53.828125 151.433594 L 55.65625 152.191406 Z M 47.746094 149.726562 L 45.664062 148.863281 L 45.808594 148.515625 L 46.15625 148.660156 L 45.867188 149.355469 L 43.789062 148.492188 L 44.078125 147.800781 L 45.808594 148.515625 L 45.664062 148.863281 L 45.316406 148.71875 L 45.605469 148.027344 L 48.03125 149.03125 Z M 40.125 146.566406 L 37.441406 145.457031 L 37.585938 145.109375 L 37.929688 145.253906 L 37.644531 145.945312 L 36.167969 145.335938 L 36.457031 144.644531 L 37.585938 145.109375 L 37.441406 145.457031 L 37.09375 145.3125 L 37.382812 144.621094 L 40.410156 145.875 Z M 32.5 143.410156 L 31.273438 142.902344 C 30.589844 142.621094 29.925781 142.304688 29.277344 141.957031 L 29.453125 141.628906 L 29.785156 141.804688 L 29.433594 142.464844 L 29.101562 142.289062 C 28.914062 142.1875 28.726562 142.085938 28.542969 141.980469 L 28.914062 141.328125 C 29.09375 141.429688 29.273438 141.53125 29.453125 141.628906 L 29.277344 141.957031 L 28.945312 141.78125 L 29.300781 141.121094 L 29.632812 141.296875 C 30.257812 141.632812 30.898438 141.9375 31.5625 142.210938 L 32.789062 142.71875 Z M 25.34375 139.285156 C 24.304688 138.40625 23.355469 137.441406 22.492188 136.390625 L 22.78125 136.152344 L 23.019531 136.441406 L 22.4375 136.917969 L 22.121094 136.527344 L 22.703125 136.054688 L 22.78125 136.152344 L 22.492188 136.390625 L 22.253906 136.101562 L 22.832031 135.625 L 23.070312 135.914062 C 23.90625 136.929688 24.824219 137.863281 25.828125 138.714844 Z M 20.054688 132.289062 L 20.195312 132.214844 L 20.371094 132.546875 L 20.042969 132.722656 C 19.695312 132.074219 19.378906 131.40625 19.097656 130.726562 L 18.265625 128.722656 L 18.960938 128.433594 L 19.789062 130.4375 C 20.0625 131.097656 20.367188 131.742188 20.703125 132.367188 L 20.878906 132.699219 L 20.410156 132.949219 Z M 16.339844 125.054688 L 16.050781 124.355469 L 16.746094 124.070312 L 16.890625 124.414062 L 16.542969 124.558594 L 15.109375 121.097656 L 15.800781 120.8125 L 17.378906 124.617188 L 16.6875 124.90625 L 16.542969 124.558594 L 16.890625 124.414062 L 17.035156 124.765625 Z M 13.183594 117.429688 L 12.644531 116.132812 L 13.339844 115.84375 L 13.484375 116.191406 L 13.136719 116.335938 L 11.953125 113.476562 L 12.644531 113.191406 L 13.972656 116.394531 L 13.28125 116.683594 L 13.136719 116.335938 L 13.484375 116.191406 L 13.878906 117.144531 Z M 10.027344 109.808594 L 9.242188 107.910156 L 9.933594 107.621094 L 10.078125 107.96875 L 9.730469 108.113281 L 8.796875 105.855469 L 9.488281 105.566406 L 10.566406 108.171875 L 9.875 108.457031 L 9.730469 108.113281 L 10.078125 107.96875 L 10.71875 109.523438 Z M 6.871094 102.1875 L 5.835938 99.6875 L 6.527344 99.398438 L 6.671875 99.746094 L 6.324219 99.890625 L 5.636719 98.234375 L 6.332031 97.945312 L 7.160156 99.949219 L 6.46875 100.234375 L 6.324219 99.890625 L 6.671875 99.746094 L 7.5625 101.898438 Z M 3.714844 94.566406 L 2.429688 91.464844 L 3.121094 91.175781 L 3.265625 91.523438 L 2.917969 91.664062 L 2.480469 90.609375 L 3.175781 90.324219 L 3.753906 91.726562 L 3.0625 92.011719 L 2.917969 91.667969 L 3.265625 91.523438 L 4.40625 94.277344 Z M 0.722656 86.785156 C 0.417969 85.621094 0.207031 84.441406 0.0898438 83.242188 L 0.0507812 82.871094 L 0.796875 82.796875 L 0.835938 83.167969 L 0.460938 83.207031 C 0.441406 83.007812 0.425781 82.808594 0.410156 82.613281 L 1.160156 82.558594 C 1.171875 82.75 1.191406 82.941406 1.207031 83.132812 L 1.246094 83.503906 L 0.5 83.578125 L 0.460938 83.207031 L 0.835938 83.167969 C 0.949219 84.328125 1.152344 85.46875 1.449219 86.59375 Z M 0.128906 78.382812 C 0.285156 77.015625 0.566406 75.675781 0.964844 74.359375 L 1.074219 74 L 1.789062 74.21875 L 1.679688 74.578125 L 1.324219 74.46875 L 1.347656 74.386719 L 2.066406 74.605469 L 1.929688 75.042969 L 1.214844 74.828125 L 1.324219 74.46875 L 1.679688 74.578125 C 1.296875 75.851562 1.027344 77.148438 0.875 78.46875 Z M 2.945312 70.75 L 2.429688 70.535156 L 4.222656 66.203125 L 4.914062 66.492188 L 3.265625 70.476562 L 2.917969 70.332031 L 3.0625 69.988281 L 3.234375 70.058594 Z M 6.148438 62.535156 L 6.324219 62.109375 L 6.671875 62.253906 L 6.527344 62.601562 L 5.835938 62.3125 L 7.378906 58.582031 L 8.074219 58.867188 L 6.671875 62.253906 L 6.324219 62.109375 L 6.46875 61.765625 L 7.160156 62.050781 L 6.839844 62.824219 Z M 9.304688 54.914062 L 9.730469 53.886719 L 10.078125 54.03125 L 9.933594 54.378906 L 9.242188 54.089844 L 10.535156 50.960938 L 11.230469 51.246094 L 10.078125 54.03125 L 9.730469 53.886719 L 9.875 53.542969 L 10.566406 53.828125 L 9.996094 55.203125 Z M 12.460938 47.292969 L 13.136719 45.664062 L 13.484375 45.808594 L 13.339844 46.15625 L 12.648438 45.867188 L 13.695312 43.339844 L 14.386719 43.625 L 13.484375 45.808594 L 13.136719 45.664062 L 13.28125 45.316406 L 13.972656 45.605469 L 13.15625 47.578125 Z M 15.621094 39.671875 L 16.542969 37.441406 L 16.890625 37.585938 L 16.746094 37.929688 L 16.050781 37.644531 L 16.851562 35.714844 L 17.542969 36.003906 L 16.890625 37.585938 L 16.542969 37.441406 L 16.6875 37.09375 L 17.378906 37.382812 L 16.3125 39.957031 Z M 18.777344 32.046875 L 19.097656 31.273438 C 19.378906 30.59375 19.695312 29.925781 20.042969 29.277344 L 20.371094 29.453125 L 20.195312 29.785156 L 19.535156 29.433594 L 19.710938 29.101562 C 19.890625 28.765625 20.078125 28.433594 20.273438 28.109375 L 20.914062 28.496094 C 20.726562 28.8125 20.546875 29.128906 20.371094 29.453125 L 20.042969 29.277344 L 20.21875 28.945312 L 20.878906 29.300781 L 20.703125 29.632812 C 20.367188 30.257812 20.0625 30.902344 19.789062 31.5625 L 19.46875 32.335938 Z M 23.039062 24.96875 C 23.832031 24.074219 24.6875 23.25 25.609375 22.492188 L 25.847656 22.78125 L 25.558594 23.019531 L 25.082031 22.441406 L 25.371094 22.203125 C 25.535156 22.070312 25.699219 21.9375 25.863281 21.8125 L 26.320312 22.402344 C 26.164062 22.527344 26.003906 22.652344 25.847656 22.78125 L 25.609375 22.492188 L 25.902344 22.253906 L 26.375 22.832031 L 26.085938 23.070312 C 25.195312 23.804688 24.367188 24.601562 23.601562 25.464844 Z M 29.574219 19.886719 C 30.128906 19.597656 30.695312 19.335938 31.273438 19.097656 L 33.328125 18.246094 L 33.472656 18.59375 L 33.125 18.734375 L 32.839844 18.042969 L 33.242188 17.875 L 33.527344 18.570312 L 33.472656 18.59375 L 33.328125 18.246094 L 33.675781 18.101562 L 33.964844 18.796875 L 31.5625 19.789062 C 31.003906 20.019531 30.457031 20.273438 29.917969 20.550781 Z M 37.828125 16.5 L 37.929688 16.746094 L 37.585938 16.890625 L 37.441406 16.542969 L 41.355469 14.921875 L 41.640625 15.613281 L 37.382812 17.378906 L 37.136719 16.789062 Z M 45.019531 12.996094 L 45.867188 12.644531 L 46.15625 13.339844 L 45.808594 13.484375 L 45.664062 13.136719 L 48.976562 11.765625 L 49.261719 12.457031 L 45.605469 13.972656 L 45.316406 13.28125 L 45.664062 13.136719 L 45.808594 13.484375 L 45.308594 13.691406 Z M 52.644531 9.839844 L 54.089844 9.242188 L 54.378906 9.933594 L 54.03125 10.078125 L 53.886719 9.730469 L 56.597656 8.609375 L 56.886719 9.300781 L 53.828125 10.566406 L 53.542969 9.875 L 53.886719 9.730469 L 54.03125 10.078125 L 52.929688 10.53125 Z M 60.265625 6.683594 L 62.3125 5.835938 L 62.601562 6.527344 L 62.253906 6.671875 L 62.109375 6.324219 L 64.21875 5.449219 L 64.507812 6.144531 L 62.050781 7.160156 L 61.765625 6.46875 L 62.109375 6.324219 L 62.253906 6.671875 L 60.550781 7.375 Z M 66.078125 4.273438 L 70.535156 2.429688 L 70.699219 2.820312 L 70.007812 3.109375 L 69.988281 3.0625 L 70.332031 2.917969 L 70.476562 3.265625 L 66.367188 4.96875 Z M 66.078125 4.273438 " fill-opacity="1" fill-rule="nonzero"/><path fill="#163f2b" d="M 66.222656 4.621094 L 70.332031 2.917969 L 70.476562 3.265625 L 72.53125 2.414062 C 73.207031 2.132812 73.886719 1.890625 74.578125 1.679688 L 74.46875 1.324219 C 75.886719 0.894531 77.335938 0.605469 78.792969 0.460938 L 78.832031 0.835938 C 80.273438 0.691406 81.726562 0.691406 83.167969 0.835938 L 83.207031 0.460938 C 84.664062 0.605469 86.113281 0.894531 87.53125 1.324219 L 87.421875 1.679688 C 88.113281 1.890625 88.792969 2.132812 89.464844 2.414062 L 91.523438 3.265625 L 91.667969 2.917969 L 95.777344 4.621094 L 95.632812 4.96875 L 99.746094 6.671875 L 99.890625 6.324219 L 104 8.027344 L 103.855469 8.375 L 107.96875 10.078125 L 108.113281 9.730469 L 112.222656 11.433594 L 112.082031 11.78125 L 116.191406 13.484375 L 116.335938 13.136719 L 120.445312 14.839844 L 120.304688 15.1875 L 124.414062 16.890625 L 124.558594 16.542969 L 128.671875 18.246094 L 128.527344 18.59375 L 130.582031 19.445312 C 131.253906 19.722656 131.910156 20.03125 132.546875 20.371094 L 132.722656 20.042969 C 134.027344 20.738281 135.253906 21.5625 136.390625 22.492188 L 136.152344 22.78125 C 137.273438 23.699219 138.300781 24.726562 139.21875 25.847656 L 139.507812 25.609375 C 140.4375 26.746094 141.261719 27.972656 141.957031 29.277344 L 141.628906 29.453125 C 141.96875 30.089844 142.277344 30.746094 142.554688 31.417969 L 143.410156 33.472656 L 143.753906 33.328125 L 145.457031 37.441406 L 145.109375 37.585938 L 146.8125 41.695312 L 147.160156 41.554688 L 148.863281 45.664062 L 148.515625 45.808594 L 150.21875 49.917969 L 150.566406 49.777344 L 152.269531 53.886719 L 151.921875 54.03125 L 153.625 58.144531 L 153.972656 58 L 155.675781 62.109375 L 155.328125 62.253906 L 157.03125 66.367188 L 157.378906 66.222656 L 159.082031 70.332031 L 158.734375 70.476562 L 159.585938 72.53125 C 159.867188 73.207031 160.109375 73.886719 160.320312 74.578125 L 160.679688 74.46875 C 161.109375 75.886719 161.394531 77.335938 161.539062 78.792969 L 161.164062 78.832031 C 161.308594 80.273438 161.308594 81.726562 161.164062 83.167969 L 161.539062 83.207031 C 161.394531 84.664062 161.109375 86.113281 160.679688 87.53125 L 160.320312 87.421875 C 160.109375 88.113281 159.867188 88.792969 159.585938 89.464844 L 158.734375 91.523438 L 159.082031 91.667969 L 157.378906 95.777344 L 157.03125 95.632812 L 155.328125 99.746094 L 155.675781 99.890625 L 153.972656 104 L 153.625 103.855469 L 151.921875 107.96875 L 152.269531 108.113281 L 150.566406 112.222656 L 150.21875 112.082031 L 148.515625 116.191406 L 148.863281 116.335938 L 147.160156 120.445312 L 146.8125 120.304688 L 145.109375 124.414062 L 145.457031 124.558594 L 143.753906 128.671875 L 143.410156 128.527344 L 142.554688 130.582031 C 142.277344 131.253906 141.96875 131.910156 141.628906 132.546875 L 141.957031 132.722656 C 141.261719 134.027344 140.4375 135.253906 139.507812 136.390625 L 139.21875 136.152344 C 138.300781 137.273438 137.273438 138.300781 136.152344 139.21875 L 136.390625 139.507812 C 135.253906 140.4375 134.027344 141.261719 132.722656 141.957031 L 132.546875 141.628906 C 131.910156 141.96875 131.253906 142.277344 130.582031 142.554688 L 128.527344 143.410156 L 128.671875 143.753906 L 124.558594 145.457031 L 124.414062 145.109375 L 120.304688 146.8125 L 120.445312 147.160156 L 116.335938 148.863281 L 116.191406 148.515625 L 112.082031 150.21875 L 112.222656 150.566406 L 108.113281 152.269531 L 107.96875 151.921875 L 103.855469 153.625 L 104 153.972656 L 99.890625 155.675781 L 99.746094 155.328125 L 95.632812 157.03125 L 95.777344 157.378906 L 91.667969 159.082031 L 91.523438 158.734375 L 89.464844 159.585938 C 88.792969 159.867188 88.113281 160.109375 87.421875 160.320312 L 87.53125 160.679688 C 86.113281 161.109375 84.664062 161.394531 83.207031 161.539062 L 83.167969 161.164062 C 81.726562 161.308594 80.273438 161.308594 78.832031 161.164062 L 78.792969 161.539062 C 77.335938 161.394531 75.886719 161.109375 74.46875 160.679688 L 74.578125 160.320312 C 73.886719 160.109375 73.207031 159.867188 72.53125 159.585938 L 70.476562 158.734375 L 70.332031 159.082031 L 66.222656 157.378906 L 66.367188 157.03125 L 62.253906 155.328125 L 62.109375 155.675781 L 58 153.972656 L 58.144531 153.625 L 54.03125 151.921875 L 53.886719 152.269531 L 49.777344 150.566406 L 49.917969 150.21875 L 45.808594 148.515625 L 45.664062 148.863281 L 41.554688 147.160156 L 41.695312 146.8125 L 37.585938 145.109375 L 37.441406 145.457031 L 33.328125 143.753906 L 33.472656 143.410156 L 31.417969 142.554688 C 30.746094 142.277344 30.089844 141.96875 29.453125 141.628906 L 29.277344 141.957031 C 27.972656 141.261719 26.746094 140.4375 25.609375 139.507812 L 25.847656 139.21875 C 24.726562 138.300781 23.699219 137.273438 22.78125 136.152344 L 22.492188 136.390625 C 21.5625 135.253906 20.738281 134.027344 20.042969 132.722656 L 20.371094 132.546875 C 20.03125 131.910156 19.722656 131.253906 19.445312 130.582031 L 18.59375 128.527344 L 18.246094 128.671875 L 16.542969 124.558594 L 16.890625 124.414062 L 15.1875 120.304688 L 14.839844 120.445312 L 13.136719 116.335938 L 13.484375 116.191406 L 11.78125 112.082031 L 11.433594 112.222656 L 9.730469 108.113281 L 10.078125 107.96875 L 8.375 103.855469 L 8.027344 104 L 6.324219 99.890625 L 6.671875 99.746094 L 4.96875 95.632812 L 4.621094 95.777344 L 2.917969 91.667969 L 3.265625 91.523438 L 2.414062 89.464844 C 2.132812 88.792969 1.890625 88.113281 1.679688 87.421875 L 1.324219 87.53125 C 0.894531 86.113281 0.605469 84.664062 0.460938 83.207031 L 0.835938 83.167969 C 0.691406 81.726562 0.691406 80.273438 0.835938 78.832031 L 0.460938 78.792969 C 0.605469 77.335938 0.894531 75.886719 1.324219 74.46875 L 1.679688 74.578125 C 1.890625 73.886719 2.132812 73.207031 2.414062 72.53125 L 3.265625 70.476562 L 2.917969 70.332031 L 4.621094 66.222656 L 4.96875 66.367188 L 6.671875 62.253906 L 6.324219 62.109375 L 8.027344 58 L 8.375 58.144531 L 10.078125 54.03125 L 9.730469 53.886719 L 11.433594 49.777344 L 11.78125 49.917969 L 13.484375 45.808594 L 13.136719 45.664062 L 14.839844 41.554688 L 15.1875 41.695312 L 16.890625 37.585938 L 16.542969 37.441406 L 18.246094 33.328125 L 18.59375 33.472656 L 19.445312 31.417969 C 19.722656 30.746094 20.03125 30.089844 20.371094 29.453125 L 20.042969 29.277344 C 20.738281 27.972656 21.5625 26.746094 22.492188 25.609375 L 22.78125 25.847656 C 23.699219 24.726562 24.726562 23.699219 25.847656 22.78125 L 25.609375 22.492188 C 26.746094 21.5625 27.972656 20.738281 29.277344 20.042969 L 29.453125 20.371094 C 30.089844 20.03125 30.746094 19.722656 31.417969 19.445312 L 33.472656 18.59375 L 33.328125 18.246094 L 37.441406 16.542969 L 37.585938 16.890625 L 41.695312 15.1875 L 41.554688 14.839844 L 45.664062 13.136719 L 45.808594 13.484375 L 49.917969 11.78125 L 49.777344 11.433594 L 53.886719 9.730469 L 54.03125 10.078125 L 58.144531 8.375 L 58 8.027344 L 62.109375 6.324219 L 62.253906 6.671875 L 66.367188 4.96875 Z M 66.222656 4.621094 " fill-opacity="1" fill-rule="nonzero"/><path fill="#2b4666" d="M 74.253906 1.386719 L 74.464844 1.324219 L 74.578125 1.679688 L 74.21875 1.789062 L 74 1.074219 L 74.359375 0.964844 C 75.632812 0.578125 76.925781 0.304688 78.246094 0.144531 L 78.335938 0.890625 C 77.058594 1.042969 75.808594 1.308594 74.578125 1.679688 L 74.46875 1.324219 L 74.828125 1.214844 L 75.042969 1.929688 L 74.476562 2.105469 Z M 82.472656 0.402344 C 82.71875 0.417969 82.960938 0.4375 83.207031 0.460938 L 83.167969 0.835938 L 82.796875 0.796875 L 82.871094 0.0507812 L 83.242188 0.0898438 C 84.394531 0.203125 85.527344 0.402344 86.648438 0.6875 L 86.464844 1.414062 C 85.378906 1.136719 84.28125 0.945312 83.167969 0.835938 L 83.207031 0.460938 L 83.578125 0.5 L 83.503906 1.246094 L 83.132812 1.207031 C 82.898438 1.183594 82.660156 1.167969 82.425781 1.152344 Z M 90.484375 2.429688 L 91.664062 2.917969 L 91.523438 3.265625 L 91.175781 3.121094 L 91.464844 2.429688 L 94.441406 3.660156 L 94.152344 4.355469 L 91.523438 3.265625 L 91.667969 2.917969 L 92.011719 3.0625 L 91.726562 3.753906 L 90.199219 3.121094 Z M 98.105469 5.585938 L 99.890625 6.324219 L 99.746094 6.671875 L 99.398438 6.527344 L 99.6875 5.835938 L 102.0625 6.816406 L 101.773438 7.511719 L 99.746094 6.671875 L 99.890625 6.324219 L 100.234375 6.46875 L 99.949219 7.160156 L 97.820312 6.277344 Z M 105.730469 8.742188 L 108.113281 9.730469 L 107.96875 10.078125 L 107.621094 9.933594 L 107.910156 9.242188 L 109.683594 9.976562 L 109.394531 10.667969 L 107.96875 10.078125 L 108.113281 9.730469 L 108.460938 9.875 L 108.171875 10.566406 L 105.441406 9.4375 Z M 113.351562 11.898438 L 116.335938 13.136719 L 116.191406 13.484375 L 115.847656 13.339844 L 116.132812 12.644531 L 117.304688 13.132812 L 117.019531 13.824219 L 116.191406 13.484375 L 116.335938 13.136719 L 116.683594 13.28125 L 116.394531 13.972656 L 113.0625 12.59375 Z M 120.972656 15.058594 L 124.558594 16.542969 L 124.414062 16.890625 L 124.070312 16.746094 L 124.355469 16.050781 L 124.929688 16.289062 L 124.640625 16.984375 L 124.414062 16.890625 L 124.558594 16.542969 L 124.90625 16.6875 L 124.617188 17.378906 L 120.6875 15.75 Z M 128.902344 18.660156 L 128.875 18.734375 L 128.527344 18.59375 L 128.671875 18.246094 L 130.726562 19.097656 C 131.40625 19.378906 132.074219 19.695312 132.722656 20.042969 L 132.546875 20.371094 L 132.214844 20.195312 L 132.226562 20.175781 L 132.886719 20.527344 L 132.699219 20.878906 L 132.367188 20.703125 C 131.742188 20.367188 131.097656 20.0625 130.4375 19.789062 L 128.035156 18.796875 L 128.210938 18.375 Z M 136.421875 22.035156 L 136.917969 22.4375 L 136.441406 23.019531 L 136.152344 22.78125 L 136.390625 22.492188 C 137.40625 23.324219 138.339844 24.242188 139.195312 25.238281 L 138.628906 25.726562 C 137.800781 24.761719 136.894531 23.878906 135.914062 23.070312 L 135.625 22.832031 L 136.101562 22.253906 L 136.390625 22.492188 L 136.152344 22.78125 L 135.949219 22.617188 Z M 141.910156 28.421875 C 142.039062 28.644531 142.167969 28.871094 142.289062 29.101562 L 142.464844 29.433594 L 141.804688 29.785156 L 141.628906 29.453125 L 141.957031 29.277344 C 142.304688 29.925781 142.621094 30.589844 142.902344 31.273438 L 143.359375 32.375 L 142.667969 32.664062 L 142.210938 31.5625 C 141.9375 30.898438 141.632812 30.257812 141.296875 29.632812 L 141.121094 29.300781 L 141.78125 28.945312 L 141.957031 29.277344 L 141.628906 29.453125 C 141.507812 29.234375 141.386719 29.015625 141.261719 28.796875 Z M 145.285156 36.042969 L 145.945312 37.644531 L 145.253906 37.929688 L 145.109375 37.585938 L 145.457031 37.441406 L 146.515625 39.996094 L 145.824219 40.285156 L 144.621094 37.382812 L 145.3125 37.09375 L 145.457031 37.441406 L 145.109375 37.585938 L 144.589844 36.328125 Z M 148.441406 43.664062 L 149.355469 45.867188 L 148.660156 46.15625 L 148.515625 45.808594 L 148.863281 45.664062 L 149.671875 47.621094 L 148.980469 47.90625 L 148.027344 45.605469 L 148.71875 45.316406 L 148.863281 45.664062 L 148.515625 45.808594 L 147.75 43.953125 Z M 151.597656 51.289062 L 152.757812 54.089844 L 152.066406 54.378906 L 151.921875 54.03125 L 152.269531 53.886719 L 152.832031 55.242188 L 152.136719 55.527344 L 151.433594 53.828125 L 152.125 53.542969 L 152.269531 53.886719 L 151.921875 54.03125 L 150.90625 51.574219 Z M 154.753906 58.910156 L 156.164062 62.3125 L 155.472656 62.601562 L 155.328125 62.253906 L 155.675781 62.109375 L 155.988281 62.863281 L 155.296875 63.152344 L 154.839844 62.050781 L 155.53125 61.765625 L 155.675781 62.109375 L 155.328125 62.253906 L 154.0625 59.195312 Z M 157.914062 66.53125 L 159.570312 70.535156 L 158.878906 70.824219 L 158.734375 70.476562 L 159.082031 70.332031 L 159.144531 70.484375 L 158.453125 70.773438 L 158.246094 70.273438 L 158.9375 69.988281 L 159.082031 70.332031 L 158.734375 70.476562 L 157.21875 66.820312 Z M 160.464844 74.140625 L 160.929688 74 L 161.035156 74.359375 C 161.46875 75.789062 161.761719 77.25 161.910156 78.738281 L 161.164062 78.8125 C 161.019531 77.375 160.738281 75.960938 160.320312 74.578125 L 160.679688 74.46875 L 160.785156 74.828125 L 160.683594 74.859375 Z M 161.558594 82.972656 L 161.539062 83.203125 L 161.164062 83.167969 L 161.203125 82.796875 L 161.949219 82.871094 L 161.910156 83.242188 C 161.78125 84.5625 161.539062 85.859375 161.183594 87.132812 L 160.460938 86.933594 C 160.804688 85.699219 161.039062 84.445312 161.164062 83.167969 L 161.539062 83.207031 L 161.5 83.578125 L 160.757812 83.503906 L 160.8125 82.902344 Z M 159.382812 90.9375 L 159.082031 91.667969 L 158.734375 91.523438 L 158.878906 91.175781 L 159.570312 91.464844 L 158.152344 94.890625 L 157.457031 94.605469 L 158.734375 91.523438 L 159.082031 91.667969 L 158.9375 92.011719 L 158.246094 91.726562 L 158.691406 90.648438 Z M 156.226562 98.558594 L 155.675781 99.890625 L 155.328125 99.746094 L 155.472656 99.398438 L 156.164062 99.6875 L 154.996094 102.515625 L 154.300781 102.226562 L 155.328125 99.746094 L 155.675781 99.890625 L 155.53125 100.234375 L 154.839844 99.949219 L 155.535156 98.273438 Z M 153.070312 106.179688 L 152.269531 108.113281 L 151.921875 107.96875 L 152.066406 107.621094 L 152.757812 107.910156 L 151.835938 110.136719 L 151.144531 109.847656 L 151.921875 107.96875 L 152.269531 108.113281 L 152.125 108.460938 L 151.433594 108.171875 L 152.375 105.894531 Z M 149.914062 113.804688 L 148.863281 116.335938 L 148.515625 116.191406 L 148.660156 115.84375 L 149.355469 116.132812 L 148.679688 117.757812 L 147.988281 117.46875 L 148.515625 116.191406 L 148.863281 116.335938 L 148.71875 116.683594 L 148.027344 116.394531 L 149.21875 113.515625 Z M 146.753906 121.425781 L 145.457031 124.558594 L 145.109375 124.414062 L 145.253906 124.070312 L 145.949219 124.355469 L 145.523438 125.378906 L 144.832031 125.09375 L 145.109375 124.414062 L 145.457031 124.558594 L 145.3125 124.90625 L 144.621094 124.617188 L 146.0625 121.136719 Z M 143.597656 129.046875 L 142.902344 130.726562 C 142.621094 131.410156 142.304688 132.074219 141.957031 132.722656 L 141.628906 132.546875 L 141.804688 132.214844 L 142.46875 132.570312 L 142.222656 133.019531 L 141.5625 132.667969 L 141.628906 132.542969 L 141.957031 132.722656 L 141.78125 133.054688 L 141.121094 132.699219 L 141.296875 132.367188 C 141.632812 131.742188 141.9375 131.101562 142.210938 130.4375 L 142.90625 128.761719 Z M 139.09375 136.535156 L 138.980469 136.441406 L 139.21875 136.152344 L 139.507812 136.390625 C 138.570312 137.53125 137.53125 138.570312 136.390625 139.507812 L 136.152344 139.21875 L 136.441406 138.980469 L 136.449219 138.992188 L 135.871094 139.46875 L 135.621094 139.167969 L 135.914062 138.929688 C 137.015625 138.023438 138.023438 137.015625 138.929688 135.914062 L 139.167969 135.621094 L 139.570312 135.957031 Z M 133.140625 142.15625 L 132.570312 142.46875 L 132.214844 141.804688 L 132.546875 141.628906 L 132.722656 141.957031 C 132.074219 142.304688 131.410156 142.621094 130.726562 142.902344 L 129.171875 143.546875 L 128.886719 142.851562 L 130.4375 142.210938 C 131.101562 141.9375 131.742188 141.632812 132.367188 141.296875 L 132.699219 141.121094 L 133.054688 141.78125 L 132.722656 141.957031 L 132.542969 141.628906 L 132.785156 141.5 Z M 125.503906 145.472656 L 124.355469 145.945312 L 124.070312 145.253906 L 124.414062 145.109375 L 124.558594 145.457031 L 121.550781 146.703125 L 121.265625 146.011719 L 124.617188 144.621094 L 124.90625 145.3125 L 124.558594 145.457031 L 124.414062 145.109375 L 125.21875 144.777344 Z M 117.882812 148.628906 L 116.132812 149.355469 L 115.84375 148.660156 L 116.191406 148.515625 L 116.335938 148.863281 L 113.929688 149.859375 L 113.640625 149.167969 L 116.394531 148.027344 L 116.683594 148.71875 L 116.335938 148.863281 L 116.191406 148.515625 L 117.597656 147.9375 Z M 110.261719 151.785156 L 107.910156 152.757812 L 107.621094 152.066406 L 107.96875 151.921875 L 108.113281 152.269531 L 106.304688 153.015625 L 106.019531 152.324219 L 108.171875 151.433594 L 108.457031 152.125 L 108.113281 152.269531 L 107.96875 151.921875 L 109.972656 151.09375 Z M 102.640625 154.941406 L 99.6875 156.164062 L 99.398438 155.472656 L 99.746094 155.328125 L 99.890625 155.675781 L 98.683594 156.175781 L 98.398438 155.480469 L 99.949219 154.839844 L 100.234375 155.53125 L 99.890625 155.675781 L 99.746094 155.328125 L 102.351562 154.25 Z M 95.019531 158.101562 L 91.464844 159.570312 L 91.175781 158.878906 L 91.523438 158.734375 L 91.667969 159.082031 L 91.0625 159.332031 L 90.777344 158.640625 L 91.726562 158.246094 L 92.011719 158.9375 L 91.667969 159.082031 L 91.523438 158.734375 L 94.730469 157.40625 Z M 87.265625 161.144531 C 85.949219 161.523438 84.609375 161.777344 83.242188 161.910156 L 82.871094 161.949219 L 82.796875 161.203125 L 83.167969 161.164062 L 83.203125 161.539062 L 83.109375 161.546875 L 83.039062 160.800781 L 83.503906 160.753906 L 83.578125 161.5 L 83.207031 161.539062 L 83.167969 161.164062 C 84.488281 161.035156 85.785156 160.789062 87.0625 160.425781 Z M 79.179688 161.457031 L 79.128906 161.949219 L 78.757812 161.910156 C 77.273438 161.765625 75.816406 161.476562 74.386719 161.046875 L 74.605469 160.328125 C 75.984375 160.742188 77.394531 161.023438 78.832031 161.164062 L 78.792969 161.539062 L 78.421875 161.5 L 78.433594 161.382812 Z M 70.613281 159.195312 L 70.332031 159.082031 L 70.476562 158.734375 L 70.824219 158.878906 L 70.535156 159.570312 L 66.65625 157.964844 L 66.945312 157.273438 L 70.476562 158.734375 L 70.332031 159.082031 L 69.988281 158.9375 L 70.273438 158.246094 L 70.898438 158.503906 Z M 62.988281 156.039062 L 62.109375 155.675781 L 62.253906 155.328125 L 62.601562 155.472656 L 62.3125 156.164062 L 59.035156 154.808594 L 59.320312 154.113281 L 62.253906 155.328125 L 62.109375 155.675781 L 61.765625 155.53125 L 62.050781 154.839844 L 63.277344 155.347656 Z M 55.367188 152.882812 L 53.886719 152.269531 L 54.03125 151.921875 L 54.378906 152.066406 L 54.089844 152.757812 L 51.414062 151.648438 L 51.699219 150.957031 L 54.03125 151.921875 L 53.886719 152.269531 L 53.542969 152.125 L 53.828125 151.433594 L 55.65625 152.191406 Z M 47.746094 149.726562 L 45.664062 148.863281 L 45.808594 148.515625 L 46.15625 148.660156 L 45.867188 149.355469 L 43.789062 148.492188 L 44.078125 147.800781 L 45.808594 148.515625 L 45.664062 148.863281 L 45.316406 148.71875 L 45.605469 148.027344 L 48.03125 149.03125 Z M 40.125 146.566406 L 37.441406 145.457031 L 37.585938 145.109375 L 37.929688 145.253906 L 37.644531 145.945312 L 36.167969 145.335938 L 36.457031 144.644531 L 37.585938 145.109375 L 37.441406 145.457031 L 37.09375 145.3125 L 37.382812 144.621094 L 40.410156 145.875 Z M 32.5 143.410156 L 31.273438 142.902344 C 30.589844 142.621094 29.925781 142.304688 29.277344 141.957031 L 29.453125 141.628906 L 29.785156 141.804688 L 29.433594 142.464844 L 29.101562 142.289062 C 28.914062 142.1875 28.726562 142.085938 28.542969 141.980469 L 28.914062 141.328125 C 29.09375 141.429688 29.273438 141.53125 29.453125 141.628906 L 29.277344 141.957031 L 28.945312 141.78125 L 29.300781 141.121094 L 29.632812 141.296875 C 30.257812 141.632812 30.898438 141.9375 31.5625 142.210938 L 32.789062 142.71875 Z M 25.34375 139.285156 C 24.304688 138.40625 23.355469 137.441406 22.492188 136.390625 L 22.78125 136.152344 L 23.019531 136.441406 L 22.4375 136.917969 L 22.121094 136.527344 L 22.703125 136.054688 L 22.78125 136.152344 L 22.492188 136.390625 L 22.253906 136.101562 L 22.832031 135.625 L 23.070312 135.914062 C 23.90625 136.929688 24.824219 137.863281 25.828125 138.714844 Z M 20.054688 132.289062 L 20.195312 132.214844 L 20.371094 132.546875 L 20.042969 132.722656 C 19.695312 132.074219 19.378906 131.40625 19.097656 130.726562 L 18.265625 128.722656 L 18.960938 128.433594 L 19.789062 130.4375 C 20.0625 131.097656 20.367188 131.742188 20.703125 132.367188 L 20.878906 132.699219 L 20.410156 132.949219 Z M 16.339844 125.054688 L 16.050781 124.355469 L 16.746094 124.070312 L 16.890625 124.414062 L 16.542969 124.558594 L 15.109375 121.097656 L 15.800781 120.8125 L 17.378906 124.617188 L 16.6875 124.90625 L 16.542969 124.558594 L 16.890625 124.414062 L 17.035156 124.765625 Z M 13.183594 117.429688 L 12.644531 116.132812 L 13.339844 115.84375 L 13.484375 116.191406 L 13.136719 116.335938 L 11.953125 113.476562 L 12.644531 113.191406 L 13.972656 116.394531 L 13.28125 116.683594 L 13.136719 116.335938 L 13.484375 116.191406 L 13.878906 117.144531 Z M 10.027344 109.808594 L 9.242188 107.910156 L 9.933594 107.621094 L 10.078125 107.96875 L 9.730469 108.113281 L 8.796875 105.855469 L 9.488281 105.566406 L 10.566406 108.171875 L 9.875 108.457031 L 9.730469 108.113281 L 10.078125 107.96875 L 10.71875 109.523438 Z M 6.871094 102.1875 L 5.835938 99.6875 L 6.527344 99.398438 L 6.671875 99.746094 L 6.324219 99.890625 L 5.636719 98.234375 L 6.332031 97.945312 L 7.160156 99.949219 L 6.46875 100.234375 L 6.324219 99.890625 L 6.671875 99.746094 L 7.5625 101.898438 Z M 3.714844 94.566406 L 2.429688 91.464844 L 3.121094 91.175781 L 3.265625 91.523438 L 2.917969 91.664062 L 2.480469 90.609375 L 3.175781 90.324219 L 3.753906 91.726562 L 3.0625 92.011719 L 2.917969 91.667969 L 3.265625 91.523438 L 4.40625 94.277344 Z M 0.722656 86.785156 C 0.417969 85.621094 0.207031 84.441406 0.0898438 83.242188 L 0.0507812 82.871094 L 0.796875 82.796875 L 0.835938 83.167969 L 0.460938 83.207031 C 0.441406 83.007812 0.425781 82.808594 0.410156 82.613281 L 1.160156 82.558594 C 1.171875 82.75 1.191406 82.941406 1.207031 83.132812 L 1.246094 83.503906 L 0.5 83.578125 L 0.460938 83.207031 L 0.835938 83.167969 C 0.949219 84.328125 1.152344 85.46875 1.449219 86.59375 Z M 0.128906 78.382812 C 0.285156 77.015625 0.566406 75.675781 0.964844 74.359375 L 1.074219 74 L 1.789062 74.21875 L 1.679688 74.578125 L 1.324219 74.46875 L 1.347656 74.386719 L 2.066406 74.605469 L 1.929688 75.042969 L 1.214844 74.828125 L 1.324219 74.46875 L 1.679688 74.578125 C 1.296875 75.851562 1.027344 77.148438 0.875 78.46875 Z M 2.945312 70.75 L 2.429688 70.535156 L 4.222656 66.203125 L 4.914062 66.492188 L 3.265625 70.476562 L 2.917969 70.332031 L 3.0625 69.988281 L 3.234375 70.058594 Z M 6.148438 62.535156 L 6.324219 62.109375 L 6.671875 62.253906 L 6.527344 62.601562 L 5.835938 62.3125 L 7.378906 58.582031 L 8.074219 58.867188 L 6.671875 62.253906 L 6.324219 62.109375 L 6.46875 61.765625 L 7.160156 62.050781 L 6.839844 62.824219 Z M 9.304688 54.914062 L 9.730469 53.886719 L 10.078125 54.03125 L 9.933594 54.378906 L 9.242188 54.089844 L 10.535156 50.960938 L 11.230469 51.246094 L 10.078125 54.03125 L 9.730469 53.886719 L 9.875 53.542969 L 10.566406 53.828125 L 9.996094 55.203125 Z M 12.460938 47.292969 L 13.136719 45.664062 L 13.484375 45.808594 L 13.339844 46.15625 L 12.648438 45.867188 L 13.695312 43.339844 L 14.386719 43.625 L 13.484375 45.808594 L 13.136719 45.664062 L 13.28125 45.316406 L 13.972656 45.605469 L 13.15625 47.578125 Z M 15.621094 39.671875 L 16.542969 37.441406 L 16.890625 37.585938 L 16.746094 37.929688 L 16.050781 37.644531 L 16.851562 35.714844 L 17.542969 36.003906 L 16.890625 37.585938 L 16.542969 37.441406 L 16.6875 37.09375 L 17.378906 37.382812 L 16.3125 39.957031 Z M 18.777344 32.046875 L 19.097656 31.273438 C 19.378906 30.59375 19.695312 29.925781 20.042969 29.277344 L 20.371094 29.453125 L 20.195312 29.785156 L 19.535156 29.433594 L 19.710938 29.101562 C 19.890625 28.765625 20.078125 28.433594 20.273438 28.109375 L 20.914062 28.496094 C 20.726562 28.8125 20.546875 29.128906 20.371094 29.453125 L 20.042969 29.277344 L 20.21875 28.945312 L 20.878906 29.300781 L 20.703125 29.632812 C 20.367188 30.257812 20.0625 30.902344 19.789062 31.5625 L 19.46875 32.335938 Z M 23.039062 24.96875 C 23.832031 24.074219 24.6875 23.25 25.609375 22.492188 L 25.847656 22.78125 L 25.558594 23.019531 L 25.082031 22.441406 L 25.371094 22.203125 C 25.535156 22.070312 25.699219 21.9375 25.863281 21.8125 L 26.320312 22.402344 C 26.164062 22.527344 26.003906 22.652344 25.847656 22.78125 L 25.609375 22.492188 L 25.902344 22.253906 L 26.375 22.832031 L 26.085938 23.070312 C 25.195312 23.804688 24.367188 24.601562 23.601562 25.464844 Z M 29.574219 19.886719 C 30.128906 19.597656 30.695312 19.335938 31.273438 19.097656 L 33.328125 18.246094 L 33.472656 18.59375 L 33.125 18.734375 L 32.839844 18.042969 L 33.242188 17.875 L 33.527344 18.570312 L 33.472656 18.59375 L 33.328125 18.246094 L 33.675781 18.101562 L 33.964844 18.796875 L 31.5625 19.789062 C 31.003906 20.019531 30.457031 20.273438 29.917969 20.550781 Z M 37.828125 16.5 L 37.929688 16.746094 L 37.585938 16.890625 L 37.441406 16.542969 L 41.355469 14.921875 L 41.640625 15.613281 L 37.382812 17.378906 L 37.136719 16.789062 Z M 45.019531 12.996094 L 45.867188 12.644531 L 46.15625 13.339844 L 45.808594 13.484375 L 45.664062 13.136719 L 48.976562 11.765625 L 49.261719 12.457031 L 45.605469 13.972656 L 45.316406 13.28125 L 45.664062 13.136719 L 45.808594 13.484375 L 45.308594 13.691406 Z M 52.644531 9.839844 L 54.089844 9.242188 L 54.378906 9.933594 L 54.03125 10.078125 L 53.886719 9.730469 L 56.597656 8.609375 L 56.886719 9.300781 L 53.828125 10.566406 L 53.542969 9.875 L 53.886719 9.730469 L 54.03125 10.078125 L 52.929688 10.53125 Z M 60.265625 6.683594 L 62.3125 5.835938 L 62.601562 6.527344 L 62.253906 6.671875 L 62.109375 6.324219 L 64.21875 5.449219 L 64.507812 6.144531 L 62.050781 7.160156 L 61.765625 6.46875 L 62.109375 6.324219 L 62.253906 6.671875 L 60.550781 7.375 Z M 66.078125 4.273438 L 70.535156 2.429688 L 70.699219 2.820312 L 70.007812 3.109375 L 69.988281 3.0625 L 70.332031 2.917969 L 70.476562 3.265625 L 66.367188 4.96875 Z M 66.078125 4.273438 " fill-opacity="1" fill-rule="nonzero"/></svg>